<svg width="32" height="33" viewBox="0 0 32 33" fill="none" xmlns="http://www.w3.org/2000/svg">
  <style>
    .themed-fill { fill: #000; }
    @media (prefers-color-scheme: dark) {
      .themed-fill { fill: #fff; }
    }
  </style>
<path class="themed-fill" d="M20.9088 19.7861C22.7543 17.9886 22.8805 14.7133 21.1178 12.7984C20.9816 12.6503 20.7234 12.4521 20.5533 12.3446C18.1568 10.8301 15.5596 9.59265 13.0342 8.28716C12.8556 8.19482 12.5768 8.02609 12.4241 7.89513C9.66953 5.53182 11.4006 0.43131 15.6112 0.500701C15.8123 0.504016 16.1239 0.585475 16.3076 0.667459C19.5844 2.12963 20.2806 2.51663 26.9526 5.66977C27.1345 5.75574 27.4255 5.90294 27.6051 5.99357C28.2358 6.31173 28.9712 6.63929 29.5364 7.02914C29.7019 7.14326 29.9531 7.35225 30.0958 7.49406C30.8734 8.26713 31.1809 9.19596 31.236 10.2767C31.2462 10.4776 31.2453 10.8039 31.2453 11.0051V22.0499C31.2453 22.2511 31.2518 22.5774 31.2431 22.7783C31.2008 23.7565 30.8373 25.4073 29.01 26.3535C28.8314 26.446 28.5313 26.5753 28.3407 26.6396C26.4452 27.279 24.8596 26.3538 23.1762 25.4787C22.9978 25.3859 22.707 25.2382 22.5276 25.1471L21.5452 24.6482C21.3658 24.5571 22.9362 25.3513 20.8955 24.3186C18.8548 23.2858 17.1512 22.5055 20.341 20.2407C20.5051 20.1242 20.7647 19.9265 20.9088 19.7861Z" fill="currentColor"/>
<path class="themed-fill" d="M15.9822 12.09C15.9822 12.09 12.4978 13.8361 11.5995 14.9786C10.6918 16.133 10.7629 17.543 11.5888 18.5666C12.4147 19.5901 15.4948 20.9102 15.4948 20.9102C15.4948 20.9102 18.9136 19.2476 19.8782 18.0209C20.7859 16.8665 20.5515 15.4073 19.8889 14.4329C19.2263 13.4585 15.9822 12.09 15.9822 12.09Z" fill="currentColor"/>
<path class="themed-fill" d="M10.9336 13.2138C9.08807 15.0114 8.96192 18.2867 10.7246 20.2017C10.8608 20.3496 11.119 20.5479 11.289 20.6553C13.6856 22.1699 16.2828 23.4073 18.8082 24.7128C18.9868 24.8052 19.2656 24.9739 19.4182 25.1049C22.1729 27.4682 20.4417 32.5687 16.2312 32.4993C16.0301 32.496 15.7185 32.4145 15.5347 32.3325C12.258 30.8704 11.5618 30.4834 4.88976 27.3302C4.70787 27.2443 4.41689 27.0971 4.23727 27.0065C3.60663 26.6883 2.87119 26.3607 2.30598 25.9709C2.14053 25.8567 1.88925 25.6477 1.74664 25.5059C0.969019 24.7329 0.66149 23.804 0.606405 22.7233C0.596158 22.5224 0.59709 22.1961 0.59709 21.9949V10.9501C0.59709 10.7489 0.590541 10.4226 0.599247 10.2216C0.641608 9.24357 1.00505 7.59271 2.83233 6.64646C3.01097 6.55397 3.31106 6.42473 3.50165 6.36043C5.39716 5.72102 6.98274 6.64621 8.66613 7.52131C8.84463 7.61409 9.13539 7.7618 9.31476 7.85291L10.2971 8.35179C10.4765 8.44289 8.90612 7.6487 10.9469 8.68145C12.9876 9.71418 14.6911 10.4945 11.5014 12.7593C11.3373 12.8758 11.0776 13.0735 10.9336 13.2138Z" fill="currentColor"/>
</svg>
